<?xml version="1.0" standalone="no"?>
<!DOCTYPE svg PUBLIC "-//W3C//DTD SVG 20010904//EN"
 "http://www.w3.org/TR/2001/REC-SVG-20010904/DTD/svg10.dtd">
<svg version="1.0" xmlns="http://www.w3.org/2000/svg"
 width="1246.000000pt" height="1280.000000pt" viewBox="0 0 1246.000000 1280.000000"
 preserveAspectRatio="xMidYMid meet">
<g transform="translate(0.000000,1280.000000) scale(0.100000,-0.100000)"
fill="#000000" stroke="none">
<path d="M7047 11690 c-214 -25 -259 -33 -246 -43 2 -2 75 -41 161 -86 109
-57 172 -84 205 -88 53 -6 602 54 617 68 5 4 -68 46 -164 93 l-172 86 -81 -1
c-45 -1 -189 -14 -320 -29z"/>
<path d="M6325 11609 c-132 -15 -243 -28 -247 -28 -5 -1 -8 -5 -8 -10 0 -16
302 -171 352 -181 36 -7 116 -1 344 25 164 19 302 39 307 44 6 6 -55 42 -162
95 l-171 86 -87 -1 c-49 -1 -196 -14 -328 -30z"/>
<path d="M5590 11529 c-271 -31 -289 -35 -274 -49 11 -10 199 -117 271 -154
69 -35 124 -34 456 4 268 32 297 36 297 48 0 4 -71 45 -158 92 l-157 85 -90 2
c-49 1 -205 -12 -345 -28z"/>
<path d="M7495 11479 c-132 -16 -249 -33 -259 -37 -29 -12 293 -180 366 -191
40 -7 123 0 338 26 157 20 289 39 294 44 5 4 -69 47 -169 96 -173 86 -180 88
-254 90 -42 1 -184 -11 -316 -28z"/>
<path d="M4840 11445 c-157 -19 -291 -34 -297 -34 -33 -2 -1 -27 134 -108 89
-52 166 -90 193 -96 34 -6 123 0 355 27 365 43 363 42 344 61 -8 7 -81 50
-162 95 -139 77 -153 83 -215 86 -37 1 -195 -12 -352 -31z"/>
<path d="M6776 11395 c-153 -19 -281 -36 -283 -39 -3 -3 -2 -9 1 -15 12 -20
331 -179 371 -185 24 -4 152 7 325 29 321 39 333 42 325 56 -4 5 -82 47 -174
94 -138 69 -179 85 -227 89 -36 3 -166 -8 -338 -29z"/>
<path d="M4030 11355 c-157 -19 -291 -34 -297 -34 -36 -2 2 -35 135 -116 140
-85 150 -90 212 -93 76 -4 680 65 695 79 12 12 21 5 -160 112 l-140 82 -80 2
c-44 1 -208 -14 -365 -32z"/>
<path d="M6011 11305 c-151 -19 -278 -38 -283 -43 -9 -9 130 -93 297 -181 55
-29 103 -27 442 14 252 31 319 44 302 58 -2 2 -78 44 -169 92 -161 86 -167 89
-240 91 -42 2 -196 -12 -349 -31z"/>
<path d="M3210 11265 c-162 -19 -306 -37 -319 -40 -24 -6 -24 -7 -5 -24 10
-10 77 -56 148 -102 120 -78 133 -84 190 -87 52 -3 625 57 709 74 15 3 26 11
24 17 -2 6 -68 51 -148 101 l-144 90 -80 2 c-44 2 -213 -13 -375 -31z"/>
<path d="M7941 11254 c-146 -19 -267 -37 -270 -39 -9 -9 12 -22 182 -110 146
-76 176 -88 230 -92 68 -5 605 62 621 77 6 6 -65 45 -180 101 -232 112 -220
111 -583 63z"/>
<path d="M5235 11214 c-290 -35 -305 -38 -305 -51 0 -10 280 -176 323 -192 44
-17 95 -14 410 24 323 39 337 41 337 54 0 5 -75 51 -167 102 -165 92 -167 93
-242 95 -43 2 -199 -12 -356 -32z"/>
<path d="M2356 11169 c-314 -36 -378 -48 -350 -67 5 -4 67 -47 138 -96 77 -54
144 -92 168 -98 31 -7 127 1 392 32 384 44 406 47 406 60 0 13 -257 181 -300
196 -49 18 -71 17 -454 -27z"/>
<path d="M7210 11164 c-291 -38 -299 -39 -282 -56 27 -27 332 -180 379 -191
44 -9 91 -6 340 27 314 41 333 44 333 57 0 4 -82 49 -182 100 -225 113 -214
112 -588 63z"/>
<path d="M4436 11120 c-176 -22 -323 -43 -328 -48 -6 -6 54 -49 149 -108 155
-97 159 -98 228 -102 42 -2 187 11 365 32 330 41 350 44 350 56 0 4 -73 51
-162 103 -146 86 -169 96 -223 101 -38 3 -176 -9 -379 -34z"/>
<path d="M1490 11070 c-184 -21 -346 -40 -359 -42 -14 -2 -26 -8 -28 -14 -4
-11 203 -173 255 -200 41 -21 112 -17 479 26 359 42 383 46 383 58 0 5 -63 52
-141 106 -132 92 -144 98 -197 101 -32 2 -208 -14 -392 -35z"/>
<path d="M6456 11069 c-164 -21 -301 -41 -304 -44 -10 -9 8 -21 177 -116 153
-85 169 -92 230 -96 75 -5 646 68 662 84 13 13 -313 189 -374 203 -56 13 -49
13 -391 -31z"/>
<path d="M3586 11019 c-176 -21 -323 -42 -329 -48 -10 -10 238 -181 299 -207
49 -20 88 -18 445 26 344 42 369 46 369 58 0 11 -297 193 -333 203 -49 14
-107 10 -451 -32z"/>
<path d="M8425 11025 c-274 -38 -295 -42 -295 -53 0 -5 88 -53 194 -108 l195
-99 78 3 c106 4 584 75 585 87 0 5 -84 52 -188 103 -232 116 -222 114 -569 67z"/>
<path d="M5652 10971 c-161 -21 -295 -41 -298 -44 -12 -12 11 -28 169 -120
115 -68 175 -97 208 -101 31 -5 153 7 360 34 343 45 352 46 346 63 -2 7 -79
54 -172 106 -167 94 -169 95 -244 97 -46 2 -192 -12 -369 -35z"/>
<path d="M1050 10945 c0 -77 51 -703 61 -737 12 -48 29 -66 168 -178 92 -74
116 -89 123 -76 8 14 -35 698 -47 756 -14 65 -31 84 -153 176 -69 52 -131 94
-139 94 -8 0 -13 -12 -13 -35z"/>
<path d="M2740 10919 c-173 -21 -322 -38 -331 -39 -8 0 -23 -6 -33 -13 -15
-11 -2 -23 120 -107 75 -52 148 -100 163 -107 42 -20 115 -15 455 27 387 48
386 48 386 63 -1 13 -267 189 -313 206 -43 16 -103 12 -447 -30z"/>
<path d="M7665 10924 c-279 -37 -298 -41 -290 -53 3 -5 87 -53 186 -106 141
-75 193 -98 233 -102 55 -5 644 72 659 86 9 9 -109 75 -284 161 -97 47 -106
50 -178 49 -42 -1 -188 -16 -326 -35z"/>
<path d="M4854 10871 c-160 -21 -304 -41 -319 -45 -38 -10 -32 -14 154 -130
126 -77 163 -96 205 -101 34 -4 161 9 385 39 293 39 367 54 350 70 -2 2 -78
48 -169 102 l-165 97 -75 3 c-46 2 -189 -12 -366 -35z"/>
<path d="M6883 10822 c-150 -21 -277 -42 -283 -48 -7 -7 46 -42 175 -114 143
-79 197 -104 233 -107 26 -3 180 14 342 36 327 45 350 49 350 60 0 4 -82 51
-182 106 l-183 99 -90 2 c-60 2 -180 -10 -362 -34z"/>
<path d="M1800 10809 c-335 -41 -360 -45 -360 -58 0 -5 61 -54 135 -110 101
-76 147 -104 183 -112 40 -9 105 -4 417 35 418 52 425 53 425 69 -1 12 -12 21
-193 144 l-107 73 -93 -1 c-50 -1 -234 -19 -407 -40z"/>
<path d="M8907 10780 c-148 -21 -276 -41 -285 -45 -15 -6 -15 -8 3 -21 11 -9
105 -58 208 -110 173 -87 193 -94 246 -94 73 0 602 77 615 90 5 5 -72 49 -195
110 -177 88 -212 102 -264 105 -37 3 -165 -11 -328 -35z"/>
<path d="M4002 10765 c-290 -37 -370 -53 -351 -68 2 -2 59 -41 127 -86 176
-117 204 -131 271 -131 83 0 722 87 735 100 8 8 7 13 -4 20 -171 109 -318 194
-348 201 -52 12 -60 11 -430 -36z"/>
<path d="M6112 10720 c-300 -40 -332 -46 -332 -58 0 -4 80 -54 178 -112 221
-130 196 -127 602 -71 335 47 350 50 350 61 0 4 -82 54 -182 110 -182 102
-183 103 -258 106 -48 2 -178 -11 -358 -36z"/>
<path d="M1394 10715 c-3 -8 1 -119 10 -247 39 -550 40 -557 74 -596 21 -26
264 -222 274 -222 18 0 17 68 -6 420 -18 284 -28 386 -41 418 -14 35 -38 57
-152 142 -74 55 -139 100 -144 100 -5 0 -12 -7 -15 -15z"/>
<path d="M8435 10713 c-16 -2 -142 -20 -280 -39 -286 -39 -305 -42 -305 -54 0
-5 87 -55 193 -112 241 -129 220 -126 617 -68 284 42 300 45 300 58 0 4 -91
53 -203 109 -203 103 -245 117 -322 106z"/>
<path d="M3117 10655 c-347 -45 -367 -48 -367 -63 0 -11 282 -209 316 -222 14
-6 47 -10 73 -10 48 0 720 86 754 96 9 3 17 11 17 17 0 7 -73 59 -161 116
-159 103 -161 104 -227 107 -39 2 -210 -16 -405 -41z"/>
<path d="M5270 10610 c-313 -43 -330 -46 -330 -59 0 -11 293 -195 344 -216 52
-22 91 -19 446 30 331 46 360 51 360 63 0 4 -80 54 -178 112 l-177 105 -90 2
c-60 1 -187 -11 -375 -37z"/>
<path d="M7395 10570 c-333 -48 -337 -49 -333 -62 2 -6 89 -58 193 -117 173
-97 194 -106 249 -109 38 -2 177 14 365 42 267 39 337 55 320 69 -2 3 -91 50
-197 107 -239 127 -219 125 -597 70z"/>
<path d="M2197 10541 c-202 -26 -373 -53 -379 -59 -8 -8 -8 -15 -2 -21 32 -29
255 -191 281 -205 50 -25 143 -20 513 29 373 49 390 52 390 69 -1 10 -238 182
-296 214 -48 26 -138 21 -507 -27z"/>
<path d="M9408 10527 c-153 -24 -283 -48 -289 -54 -17 -17 395 -222 460 -230
51 -5 629 81 645 97 5 5 -74 50 -205 115 -185 91 -222 106 -274 110 -40 3
-154 -10 -337 -38z"/>
<path d="M4396 10495 c-281 -39 -352 -53 -335 -69 2 -2 78 -52 169 -112 161
-106 166 -108 231 -112 66 -4 734 82 760 98 6 4 9 12 5 18 -3 5 -81 56 -173
113 l-168 104 -85 2 c-55 1 -199 -14 -404 -42z"/>
<path d="M6572 10456 c-310 -45 -332 -49 -332 -64 0 -4 84 -57 187 -117 173
-101 191 -110 247 -113 55 -4 686 81 708 94 4 3 8 9 8 14 0 4 -86 56 -191 115
-237 134 -209 131 -627 71z"/>
<path d="M1757 10440 c-3 -11 6 -190 19 -398 17 -271 28 -389 40 -419 13 -36
39 -62 158 -158 79 -63 148 -115 153 -115 6 0 13 7 17 15 5 14 -28 673 -38
761 -11 93 -27 113 -180 227 -79 59 -148 107 -153 107 -6 0 -13 -9 -16 -20z"/>
<path d="M8652 10416 c-298 -46 -321 -51 -306 -66 5 -5 99 -57 209 -116 179
-96 206 -107 260 -110 83 -6 660 86 660 104 0 8 -93 61 -206 118 -258 131
-233 128 -617 70z"/>
<path d="M3860 10423 c-545 -72 -695 -94 -703 -102 -14 -14 -20 -9 148 -126
160 -112 186 -125 252 -125 73 0 766 99 778 111 13 14 -10 32 -187 146 -128
82 -149 93 -198 97 -30 2 -71 2 -90 -1z"/>
<path d="M5708 10335 c-309 -44 -333 -49 -324 -64 3 -5 87 -59 187 -121 163
-101 186 -113 237 -117 38 -3 168 12 395 46 186 28 343 53 348 56 5 4 9 10 9
15 0 4 -82 57 -182 116 l-183 108 -95 2 c-68 2 -178 -10 -392 -41z"/>
<path d="M7870 10300 c-323 -49 -320 -49 -320 -63 0 -7 92 -63 203 -125 199
-110 205 -113 268 -113 35 -1 197 20 359 45 308 49 330 53 330 64 0 4 -91 56
-202 117 l-203 109 -90 3 c-64 1 -164 -9 -345 -37z"/>
<path d="M2955 10304 c-16 -3 -169 -23 -340 -45 -364 -47 -415 -56 -415 -74 0
-11 196 -163 283 -220 58 -37 102 -36 511 21 215 30 398 57 408 60 11 3 17 11
15 17 -3 10 -260 196 -308 222 -29 16 -108 25 -154 19z"/>
<path d="M9913 10256 c-145 -23 -266 -45 -270 -49 -11 -12 2 -19 224 -132 173
-88 223 -109 265 -112 34 -3 152 12 328 41 324 54 320 53 320 67 0 5 -100 59
-222 119 l-223 110 -80 -1 c-44 -1 -198 -20 -342 -43z"/>
<path d="M5205 10263 c-130 -16 -677 -95 -690 -99 -8 -3 -15 -11 -14 -18 0 -6
79 -62 175 -125 167 -109 177 -114 237 -118 43 -3 167 11 407 47 364 53 380
56 380 70 0 8 -296 197 -355 227 -24 12 -99 21 -140 16z"/>
<path d="M7355 10223 c-16 -3 -161 -24 -322 -48 -287 -42 -313 -48 -313 -65 0
-4 85 -58 189 -119 131 -77 205 -114 239 -121 42 -7 106 0 397 45 191 30 350
57 353 60 11 11 -24 33 -213 138 -162 90 -198 106 -245 110 -30 3 -68 3 -85 0z"/>
<path d="M9177 10141 c-164 -26 -302 -52 -308 -58 -7 -7 44 -40 168 -106 259
-138 261 -139 322 -143 67 -5 663 95 668 112 2 6 -95 61 -216 122 -189 97
-227 113 -277 116 -41 4 -152 -10 -357 -43z"/>
<path d="M2143 10153 c-7 -17 23 -614 37 -750 5 -45 15 -94 23 -108 12 -25
313 -275 329 -275 18 0 18 68 -1 436 -15 295 -24 401 -37 437 -15 46 -27 56
-170 163 -85 63 -159 114 -164 114 -6 0 -13 -7 -17 -17z"/>
<path d="M3950 10090 c-356 -50 -383 -55 -377 -73 2 -6 79 -64 172 -129 135
-94 178 -119 214 -124 33 -5 148 8 406 45 373 55 435 66 435 80 0 11 -325 226
-363 240 -47 18 -137 11 -487 -39z"/>
<path d="M1118 10082 c-10 -36 49 -726 64 -763 10 -24 59 -74 142 -147 70 -62
131 -112 136 -112 14 0 12 69 -10 390 -22 324 -27 363 -45 406 -8 20 -58 68
-135 130 -146 118 -146 119 -152 96z"/>
<path d="M6195 10053 c-307 -47 -351 -56 -340 -73 8 -13 342 -220 382 -237 18
-7 54 -13 80 -13 51 1 731 105 740 114 11 11 -13 28 -155 112 -241 143 -243
144 -331 143 -42 -1 -211 -21 -376 -46z"/>
<path d="M8401 10020 c-367 -59 -334 -53 -338 -66 -4 -12 159 -109 345 -206
77 -40 101 -48 146 -48 49 0 631 91 677 105 11 4 19 10 19 14 0 4 -98 60 -217
124 -182 96 -227 116 -273 121 -38 3 -147 -10 -359 -44z"/>
<path d="M10483 9982 c-155 -27 -286 -51 -290 -55 -11 -12 3 -20 239 -141 224
-115 227 -116 295 -116 37 0 194 23 348 50 154 27 281 50 283 50 1 0 2 6 2 13
0 8 -101 63 -232 127 -290 141 -258 137 -645 72z"/>
<path d="M3005 9959 c-362 -51 -400 -58 -400 -76 0 -15 287 -230 331 -249 53
-22 113 -17 511 41 361 53 420 65 408 85 -8 12 -298 216 -335 235 -46 24 -145
17 -515 -36z"/>
<path d="M5360 9930 c-337 -50 -410 -64 -410 -79 0 -5 84 -64 188 -132 185
-122 188 -123 252 -127 72 -4 767 101 784 118 15 15 0 26 -191 144 -127 79
-185 109 -224 116 -28 6 -54 10 -58 9 -3 0 -157 -22 -341 -49z"/>
<path d="M7572 9890 c-350 -56 -355 -57 -350 -73 3 -7 96 -66 208 -132 191
-112 208 -120 264 -123 41 -2 165 14 371 47 375 62 365 60 365 75 0 6 -95 65
-212 130 -264 148 -228 144 -646 76z"/>
<path d="M9733 9856 c-172 -29 -315 -55 -319 -59 -13 -13 14 -30 229 -144 200
-106 228 -118 282 -121 42 -3 149 12 355 48 289 51 341 64 324 80 -5 4 -112
60 -239 123 -160 81 -244 118 -275 121 -28 3 -162 -15 -357 -48z"/>
<path d="M2551 9851 c-7 -13 -6 -114 4 -322 20 -407 29 -519 48 -556 12 -23
197 -181 335 -286 34 -26 36 6 23 350 -15 402 -24 510 -46 556 -11 24 -59 66
-162 143 -184 137 -189 140 -202 115z"/>
<path d="M4379 9786 c-190 -29 -351 -56 -357 -60 -7 -4 -12 -11 -12 -15 0 -11
341 -248 375 -261 14 -5 45 -10 69 -10 64 0 797 117 809 129 15 15 12 17 -192
152 l-174 114 -86 2 c-61 1 -188 -14 -432 -51z"/>
<path d="M1457 9799 c-6 -23 27 -545 42 -676 6 -45 17 -95 25 -111 18 -35 284
-268 294 -257 17 17 -32 750 -54 804 -12 31 -46 64 -152 150 -76 61 -140 111
-143 111 -4 0 -9 -9 -12 -21z"/>
<path d="M6701 9754 c-350 -56 -361 -58 -361 -72 0 -12 372 -242 418 -258 21
-7 51 -13 68 -14 26 0 635 97 727 116 15 3 27 11 27 19 0 15 -382 241 -432
255 -51 15 -90 11 -447 -46z"/>
<path d="M9235 9772 c-143 -18 -632 -105 -640 -113 -12 -12 -28 -2 226 -144
225 -125 266 -140 365 -125 145 20 591 102 614 111 24 11 24 11 5 25 -11 8
-117 66 -235 128 -217 115 -257 129 -335 118z"/>
<path d="M11041 9689 c-252 -44 -277 -51 -303 -76 -15 -15 -32 -43 -37 -63 -5
-19 -26 -196 -46 -392 -35 -336 -36 -359 -21 -383 10 -15 26 -25 39 -25 47 0
571 110 593 125 46 30 54 65 98 438 43 362 44 399 13 419 -19 12 -47 9 -336
-43z"/>
<path d="M3424 9645 c-331 -50 -394 -64 -394 -84 0 -10 294 -232 338 -255 51
-26 140 -19 520 39 383 59 435 70 429 88 -2 6 -84 68 -182 137 l-179 125 -91
2 c-66 1 -185 -13 -441 -52z"/>
<path d="M5814 9615 c-378 -60 -387 -61 -382 -78 5 -14 325 -230 383 -258 22
-10 62 -19 88 -19 46 0 747 113 781 126 9 3 16 10 16 14 0 9 -378 246 -416
260 -45 18 -133 9 -470 -45z"/>
<path d="M8093 9585 c-326 -56 -353 -61 -353 -74 0 -5 97 -65 215 -135 240
-141 269 -151 381 -135 127 18 589 100 622 110 18 6 31 16 29 22 -5 16 -412
244 -457 257 -57 16 -109 11 -437 -45z"/>
<path d="M10290 9559 c-155 -27 -290 -56 -310 -66 -63 -33 -66 -46 -99 -418
-38 -421 -39 -449 -8 -470 22 -14 47 -10 323 45 200 40 307 66 324 79 51 38
56 59 94 426 20 193 36 365 36 383 0 38 -30 73 -62 71 -13 -1 -147 -23 -298
-50z"/>
<path d="M2977 9513 c-4 -24 14 -540 26 -753 8 -130 16 -141 213 -301 118 -95
180 -139 191 -135 14 6 15 35 9 279 -13 476 -21 597 -42 642 -15 32 -55 67
-188 168 -93 70 -177 127 -186 127 -11 0 -20 -10 -23 -27z"/>
<path d="M1815 9508 c-3 -13 6 -188 19 -391 22 -326 27 -372 46 -410 14 -27
61 -77 136 -142 153 -133 163 -140 176 -127 7 7 5 104 -6 314 -21 380 -31 479
-50 515 -12 25 -293 263 -310 263 -3 0 -8 -10 -11 -22z"/>
<path d="M4885 9471 c-198 -32 -370 -61 -383 -65 -13 -4 -22 -14 -20 -21 4
-18 342 -255 388 -271 19 -7 53 -13 75 -13 56 -1 806 126 818 138 5 5 7 13 4
19 -4 5 -94 66 -201 136 -189 123 -195 127 -257 131 -46 3 -165 -12 -424 -54z"/>
<path d="M7220 9442 c-184 -32 -341 -61 -348 -66 -6 -4 -12 -11 -12 -16 0 -10
374 -244 424 -265 20 -8 61 -15 93 -15 69 0 732 115 747 130 16 16 -2 28 -226
160 -263 154 -222 150 -678 72z"/>
<path d="M9466 9414 c-320 -57 -327 -60 -362 -126 -17 -32 -72 -768 -61 -811
14 -53 27 -52 370 16 333 67 343 71 374 130 15 30 86 767 76 796 -12 33 -36
51 -67 50 -17 -1 -166 -25 -330 -55z"/>
<path d="M3915 9319 c-409 -64 -429 -68 -432 -89 -2 -9 69 -69 176 -148 155
-115 185 -133 233 -142 48 -9 100 -3 471 59 228 38 421 72 426 76 6 3 11 12
11 18 0 16 -344 257 -390 273 -55 20 -100 16 -495 -47z"/>
<path d="M6315 9291 c-356 -60 -385 -66 -385 -82 0 -5 93 -71 206 -145 176
-115 216 -137 264 -145 50 -9 94 -4 406 50 388 68 424 76 424 96 0 14 -360
243 -424 270 -55 23 -126 17 -491 -44z"/>
<path d="M8950 9322 c-14 -2 -162 -27 -329 -57 -222 -38 -310 -58 -330 -72
-54 -40 -58 -59 -81 -481 -20 -355 -21 -395 -7 -416 9 -13 24 -26 35 -28 10
-3 168 24 349 61 348 69 358 73 389 133 14 27 64 617 64 759 0 82 -25 111 -90
101z"/>
<path d="M1180 9200 c0 -16 11 -176 25 -354 17 -221 30 -338 40 -364 11 -27
55 -75 141 -156 69 -64 130 -116 135 -116 13 0 11 61 -6 315 -23 338 -33 422
-52 459 -18 34 -252 246 -272 246 -6 0 -11 -13 -11 -30z"/>
<path d="M2195 9201 c-10 -32 34 -741 50 -796 13 -46 25 -60 166 -182 84 -73
158 -133 164 -133 7 0 15 10 17 23 5 26 -28 702 -37 762 -3 23 -14 55 -25 72
-17 28 -306 273 -322 273 -4 0 -9 -9 -13 -19z"/>
<path d="M3436 9173 c-4 -16 0 -214 8 -441 14 -398 15 -414 38 -459 18 -38 56
-75 193 -186 195 -159 204 -165 216 -146 11 17 11 203 0 592 -11 388 4 354
-240 535 -98 72 -185 132 -194 132 -9 0 -18 -12 -21 -27z"/>
<path d="M5371 9135 c-205 -35 -380 -66 -387 -69 -33 -13 -4 -40 159 -154 217
-151 231 -159 292 -167 67 -9 817 120 849 146 20 16 15 20 -187 154 -204 135
-247 155 -317 154 -19 -1 -203 -30 -409 -64z"/>
<path d="M8035 9164 c-5 -2 -143 -26 -305 -54 -173 -30 -307 -58 -324 -68 -16
-9 -38 -29 -50 -45 -19 -25 -21 -51 -32 -320 -7 -160 -13 -349 -13 -419 -1
-115 1 -130 19 -148 11 -11 30 -20 43 -20 12 0 172 30 356 67 351 70 371 77
403 136 12 23 60 800 50 827 -13 37 -35 50 -86 49 -28 0 -55 -2 -61 -5z"/>
<path d="M4383 8971 c-221 -37 -409 -74 -418 -81 -22 -18 -15 -25 187 -176
243 -182 183 -175 707 -84 229 40 427 79 440 87 30 19 39 11 -191 172 -183
128 -229 151 -298 150 -14 0 -206 -31 -427 -68z"/>
<path d="M6845 8956 c-192 -34 -364 -70 -381 -79 -19 -10 -40 -33 -52 -59 -19
-40 -21 -71 -27 -449 -5 -285 -4 -413 4 -427 24 -45 45 -44 429 33 338 67 365
74 393 101 16 15 34 44 39 64 13 47 41 797 30 824 -10 28 -29 43 -60 49 -14 3
-182 -23 -375 -57z"/>
<path d="M1517 8920 c-3 -12 -2 -76 3 -143 5 -67 16 -219 25 -337 8 -118 20
-233 27 -255 9 -28 38 -63 103 -125 135 -130 181 -170 194 -170 15 0 14 13
-10 390 -13 208 -26 342 -35 372 -13 41 -32 62 -151 165 -74 65 -138 119 -143
121 -4 2 -10 -7 -13 -18z"/>
<path d="M2594 8876 c-5 -14 21 -630 32 -740 10 -104 21 -119 195 -271 89 -77
166 -140 173 -140 13 0 12 239 -3 580 -10 227 -19 282 -50 319 -26 31 -319
266 -331 266 -6 0 -13 -6 -16 -14z"/>
<path d="M5869 8785 c-195 -34 -370 -70 -388 -79 -17 -9 -41 -31 -51 -49 -19
-30 -20 -53 -20 -462 0 -470 0 -467 58 -479 40 -9 770 139 802 163 59 43 58
42 68 481 9 430 7 456 -36 479 -31 16 -49 14 -433 -54z"/>
<path d="M3930 8825 c-11 -13 -11 -95 -2 -455 10 -400 12 -443 30 -483 16 -37
52 -71 216 -203 l196 -158 72 -3 c58 -2 145 11 428 68 195 38 369 74 386 80
17 5 44 23 60 40 l29 30 3 435 3 435 -30 29 c-16 17 -38 30 -48 30 -10 0 -195
-31 -412 -69 -344 -61 -398 -73 -430 -95 l-36 -26 -34 41 c-31 37 -372 302
-405 315 -7 3 -19 -2 -26 -11z"/>
<path d="M10941 8754 c-145 -29 -275 -61 -287 -69 -47 -31 -55 -65 -90 -399
-19 -177 -34 -345 -34 -374 0 -84 0 -84 326 -11 153 34 289 68 301 76 50 30
54 50 99 421 48 400 47 406 -16 409 -19 1 -154 -23 -299 -53z"/>
<path d="M10179 8602 c-154 -32 -286 -65 -301 -74 -45 -30 -55 -83 -88 -456
-32 -372 -32 -386 13 -397 28 -7 592 120 623 140 47 30 55 65 90 399 37 349
40 416 22 434 -19 19 -68 13 -359 -46z"/>
<path d="M1874 8615 c-7 -17 21 -528 36 -672 5 -45 16 -95 24 -111 24 -46 296
-296 308 -284 7 7 6 105 -6 319 -18 334 -29 446 -47 485 -6 14 -70 77 -142
139 -166 145 -165 145 -173 124z"/>
<path d="M3024 8538 c-10 -15 -6 -174 10 -538 11 -241 16 -291 32 -325 13 -27
71 -85 188 -187 93 -82 175 -148 182 -148 15 0 16 12 15 165 -4 300 -23 663
-37 707 -14 43 -30 59 -185 185 -194 157 -195 158 -205 141z"/>
<path d="M9396 8445 c-215 -45 -314 -69 -328 -82 -43 -39 -48 -66 -73 -405
-32 -424 -32 -433 -1 -454 24 -15 42 -12 336 54 171 39 321 77 334 85 46 31
53 68 85 422 17 187 31 355 31 373 0 36 -30 73 -57 71 -10 0 -157 -29 -327
-64z"/>
<path d="M1245 8391 c-11 -18 45 -681 61 -720 16 -39 250 -281 271 -281 17 0
17 8 -7 337 -23 319 -27 355 -46 402 -21 50 -267 281 -279 262z"/>
<path d="M8557 8275 c-322 -65 -338 -71 -369 -129 -10 -19 -47 -582 -48 -727
0 -84 14 -109 61 -109 44 0 641 139 665 155 49 32 54 59 80 403 13 180 24 352
24 383 0 66 -19 90 -71 88 -19 -1 -173 -29 -342 -64z"/>
<path d="M2246 8285 c-10 -28 34 -727 49 -775 15 -46 23 -53 278 -289 33 -31
51 -41 58 -34 8 8 6 115 -5 359 -16 343 -25 428 -49 471 -12 22 -306 283 -318
283 -4 0 -9 -7 -13 -15z"/>
<path d="M3474 8168 c-9 -14 -7 -179 6 -543 10 -261 17 -315 43 -362 13 -23
365 -333 378 -333 24 0 27 56 18 420 -9 391 -16 464 -47 512 -16 27 -368 318
-384 318 -4 0 -10 -5 -14 -12z"/>
<path d="M7709 8106 c-169 -34 -320 -68 -338 -75 -17 -8 -41 -29 -53 -49 -21
-34 -23 -55 -35 -356 -7 -177 -12 -357 -11 -400 3 -72 5 -81 29 -98 l26 -20
339 76 c210 48 349 84 364 95 56 41 58 49 81 459 20 355 20 383 5 407 -23 36
-52 33 -407 -39z"/>
<path d="M1576 8065 c-3 -8 -1 -74 4 -147 6 -73 15 -207 20 -298 12 -185 23
-257 44 -297 17 -34 258 -273 274 -273 17 0 15 82 -7 420 -14 206 -24 296 -36
327 -12 30 -52 75 -146 162 -71 67 -133 121 -138 121 -5 0 -11 -7 -15 -15z"/>
<path d="M6811 7925 c-333 -67 -366 -76 -392 -101 -16 -15 -33 -41 -38 -58 -5
-17 -13 -206 -17 -419 l-6 -388 22 -25 c13 -13 33 -24 44 -24 45 0 714 157
739 173 53 35 55 47 72 460 12 294 13 391 4 411 -23 50 -39 49 -428 -29z"/>
<path d="M2640 7873 c0 -186 31 -679 46 -725 13 -39 36 -66 152 -175 197 -183
191 -178 203 -166 8 8 7 115 -4 390 -13 316 -19 386 -34 426 -15 42 -40 68
-178 188 -88 76 -165 139 -172 139 -9 0 -13 -22 -13 -77z"/>
<path d="M10846 7855 c-303 -70 -317 -76 -336 -144 -19 -66 -79 -691 -70 -717
7 -18 17 -24 40 -24 17 0 150 30 296 67 291 72 316 84 333 151 5 20 26 184 47
364 37 319 37 328 19 348 -10 11 -25 20 -34 19 -9 0 -142 -29 -295 -64z"/>
<path d="M5870 7736 c-195 -40 -365 -76 -377 -80 -12 -4 -36 -23 -52 -42 l-31
-35 0 -419 c0 -407 1 -421 20 -440 11 -11 33 -20 50 -20 47 0 743 159 768 176
53 35 59 59 66 282 3 114 7 297 7 406 l2 200 -27 23 c-15 13 -37 23 -49 22
-12 -1 -182 -34 -377 -73z"/>
<path d="M3951 7772 c-6 -11 -6 -158 0 -392 10 -441 12 -467 36 -513 11 -21
89 -97 193 -188 96 -83 182 -158 192 -166 9 -8 27 -16 40 -18 12 -2 37 -8 53
-13 25 -7 102 7 405 74 206 46 390 91 409 101 19 10 44 31 55 46 20 28 21 41
24 425 1 218 0 407 -3 420 -9 36 -42 62 -77 62 -18 0 -206 -35 -417 -77 -319
-64 -388 -80 -411 -100 -37 -30 -44 -29 -68 11 -18 30 -396 346 -414 346 -4 0
-12 -8 -17 -18z"/>
<path d="M1927 7746 c-10 -25 33 -667 48 -721 13 -44 31 -67 159 -195 103
-102 149 -141 156 -134 8 8 5 114 -10 364 -17 288 -24 360 -39 394 -12 28 -63
84 -155 171 -76 72 -141 131 -146 133 -4 2 -10 -4 -13 -12z"/>
<path d="M10093 7686 c-149 -35 -283 -70 -296 -79 -46 -30 -53 -66 -86 -431
-28 -316 -29 -352 -16 -373 9 -13 24 -23 35 -23 36 0 584 141 607 156 45 29
52 63 90 420 40 390 40 395 -24 393 -21 -1 -160 -29 -310 -63z"/>
<path d="M1306 7582 c-11 -18 44 -662 59 -699 13 -31 251 -293 266 -293 4 0 9
8 11 18 8 29 -39 634 -52 678 -10 33 -42 71 -145 174 -73 73 -135 128 -139
122z"/>
<path d="M3060 7564 c-6 -16 -9 -55 -6 -89 3 -33 11 -193 16 -355 8 -199 16
-312 26 -347 13 -49 27 -64 191 -219 212 -198 205 -198 197 -5 -3 69 -9 244
-14 389 -8 223 -12 269 -28 305 -15 33 -57 77 -178 183 -212 186 -192 172
-204 138z"/>
<path d="M9317 7510 c-307 -70 -324 -76 -353 -131 -9 -18 -22 -150 -40 -388
-25 -347 -26 -362 -9 -381 10 -11 30 -20 44 -20 53 1 612 148 633 166 41 38
47 68 79 423 29 328 30 353 15 376 -11 17 -25 25 -44 24 -15 0 -161 -31 -325
-69z"/>
<path d="M2296 7401 c-9 -15 32 -699 45 -746 9 -32 42 -72 162 -192 83 -84
157 -153 164 -153 17 0 17 50 -2 425 -11 208 -20 314 -31 347 -13 39 -37 67
-165 185 -82 76 -153 139 -158 141 -5 2 -12 -1 -15 -7z"/>
<path d="M8510 7329 c-178 -41 -315 -77 -330 -87 -53 -38 -57 -62 -79 -447
-21 -386 -20 -395 27 -407 11 -3 163 30 338 73 307 76 320 81 351 113 17 19
34 49 37 68 3 18 17 182 30 363 27 378 25 396 -44 394 -14 -1 -162 -32 -330
-70z"/>
<path d="M1634 7246 c-6 -16 19 -418 36 -587 5 -47 15 -102 23 -121 20 -48
278 -314 288 -296 4 7 3 69 -1 138 -5 69 -14 211 -20 315 -16 265 -21 278
-133 393 -130 133 -185 178 -193 158z"/>
<path d="M7659 7136 c-174 -39 -328 -79 -342 -89 -55 -36 -58 -50 -74 -449
-13 -329 -13 -372 1 -392 8 -13 24 -26 34 -28 26 -7 673 154 705 175 49 32 54
60 76 440 12 217 17 367 11 381 -19 50 -30 49 -411 -38z"/>
<path d="M3503 7184 c-3 -10 -1 -190 5 -401 10 -320 15 -390 30 -430 14 -39
47 -76 201 -220 149 -141 187 -171 198 -161 12 10 13 63 8 332 -8 371 -17 501
-39 544 -14 26 -361 341 -387 350 -5 2 -12 -4 -16 -14z"/>
<path d="M10751 6986 c-262 -67 -286 -75 -307 -102 -30 -37 -30 -33 -68 -400
-33 -309 -33 -348 -1 -360 17 -7 534 130 577 152 51 26 59 60 99 394 21 173
38 323 39 333 0 17 -34 58 -47 56 -5 0 -136 -33 -292 -73z"/>
<path d="M2684 7035 c-4 -9 -1 -113 5 -233 6 -119 14 -273 17 -342 9 -190 19
-217 122 -323 135 -138 242 -231 253 -220 6 6 5 104 -1 269 -17 401 -25 494
-46 535 -16 31 -324 329 -339 329 -3 0 -8 -7 -11 -15z"/>
<path d="M7115 7013 c-11 -3 -168 -38 -350 -79 -199 -45 -340 -81 -355 -92
-55 -40 -58 -56 -65 -462 -7 -363 -6 -376 12 -399 13 -16 30 -24 49 -24 16 0
180 38 364 83 327 81 336 84 372 119 45 45 44 39 59 480 l12 334 -27 24 c-27
23 -34 25 -71 16z"/>
<path d="M1984 6758 c16 -354 33 -533 54 -579 24 -50 285 -328 298 -316 17 16
-21 670 -42 730 -11 31 -51 78 -152 180 -75 75 -143 137 -151 137 -12 0 -13
-24 -7 -152z"/>
<path d="M10043 6810 c-150 -37 -286 -73 -303 -80 -66 -28 -71 -45 -102 -369
-15 -163 -27 -324 -28 -359 0 -97 -6 -97 330 -7 157 42 295 83 307 91 46 29
54 65 89 398 19 177 34 329 34 339 0 17 -34 58 -47 56 -5 -1 -130 -32 -280
-69z"/>
<path d="M6100 6785 c-52 -12 -212 -49 -355 -81 -255 -57 -261 -59 -297 -95
l-38 -37 0 -404 c0 -373 1 -406 18 -420 9 -8 25 -18 35 -21 9 -4 182 35 384
85 339 84 369 94 402 123 l35 32 7 124 c4 68 8 250 10 403 l3 279 -23 18 c-29
24 -63 23 -181 -6z"/>
<path d="M1360 6788 c1 -106 51 -642 62 -669 16 -36 243 -292 265 -297 17 -4
17 3 -7 330 -22 302 -26 329 -48 373 -16 32 -249 275 -264 275 -4 0 -8 -6 -8
-12z"/>
<path d="M3973 6765 c-3 -10 -2 -198 3 -419 10 -383 11 -403 32 -443 24 -46
380 -386 410 -391 9 -2 32 -10 50 -19 33 -14 47 -12 420 81 218 54 398 104
412 114 59 43 60 52 60 467 0 413 0 414 -56 435 -35 14 -793 -158 -834 -188
-39 -29 -45 -28 -68 12 -21 35 -383 359 -408 364 -8 2 -17 -4 -21 -13z"/>
<path d="M9250 6613 c-322 -81 -340 -89 -360 -163 -10 -36 -50 -565 -50 -657
0 -44 4 -55 23 -68 22 -14 44 -9 332 69 338 92 344 94 364 174 5 20 22 182 37
359 27 313 27 323 9 343 -10 11 -28 20 -39 19 -12 0 -154 -34 -316 -76z"/>
<path d="M3095 6639 c-4 -12 -4 -72 -1 -133 4 -61 11 -219 16 -351 7 -162 15
-255 25 -285 12 -37 47 -77 188 -218 140 -140 176 -171 185 -160 11 13 8 153
-12 658 -6 157 -10 164 -208 351 -93 87 -173 159 -178 159 -5 0 -12 -10 -15
-21z"/>
<path d="M2340 6508 c0 -24 9 -184 19 -355 17 -277 22 -318 40 -355 12 -24 87
-110 166 -192 129 -133 145 -147 152 -128 8 20 4 148 -16 518 -7 125 -15 194
-26 220 -17 42 -300 334 -322 334 -9 0 -13 -15 -13 -42z"/>
<path d="M8443 6412 c-317 -81 -338 -90 -362 -150 -6 -15 -20 -182 -30 -372
-18 -306 -19 -347 -5 -367 9 -14 24 -23 40 -23 28 0 568 144 626 167 73 29 76
40 105 433 25 337 25 351 8 370 -11 12 -30 20 -49 19 -17 0 -167 -35 -333 -77z"/>
<path d="M1688 6438 c-9 -47 39 -632 55 -669 14 -34 263 -319 278 -319 16 0
17 38 3 246 -23 357 -30 428 -49 465 -18 34 -262 299 -276 299 -3 0 -9 -10
-11 -22z"/>
<path d="M7615 6205 c-306 -78 -332 -86 -357 -114 -15 -17 -29 -45 -33 -63 -7
-41 -31 -675 -27 -706 2 -12 15 -30 28 -39 24 -15 39 -12 349 72 178 48 338
96 355 106 17 11 37 34 45 52 11 28 37 392 48 668 2 74 -17 110 -57 108 -12 0
-169 -38 -351 -84z"/>
<path d="M3533 6234 c-10 -26 16 -730 29 -782 10 -42 31 -67 191 -229 102
-103 189 -183 199 -183 17 0 18 12 17 148 0 81 -4 257 -8 392 -6 202 -11 253
-26 288 -14 33 -61 85 -198 213 -99 93 -184 169 -189 169 -5 0 -11 -7 -15 -16z"/>
<path d="M10653 6146 c-271 -75 -295 -85 -318 -141 -7 -16 -28 -173 -45 -347
-36 -342 -35 -348 17 -348 33 0 532 147 560 165 12 9 29 28 37 43 8 16 30 161
52 349 41 349 41 354 -15 352 -14 0 -144 -33 -288 -73z"/>
<path d="M2727 6156 c-6 -14 18 -557 28 -658 3 -32 12 -73 20 -92 15 -35 308
-349 331 -354 11 -3 14 19 14 110 -1 190 -27 621 -39 653 -11 27 -327 355
-342 355 -4 0 -9 -6 -12 -14z"/>
<path d="M2030 6033 c1 -38 9 -187 19 -333 15 -210 22 -275 37 -308 21 -45
271 -330 292 -331 15 -1 15 15 -3 334 -18 315 -22 351 -43 392 -19 36 -278
313 -293 313 -5 0 -9 -30 -9 -67z"/>
<path d="M6766 5994 c-186 -46 -352 -92 -368 -102 -15 -9 -37 -35 -47 -57 -17
-36 -20 -77 -25 -395 -7 -397 -7 -400 57 -400 43 0 681 174 711 193 48 32 54
65 65 347 20 494 21 478 -34 493 -11 4 -173 -32 -359 -79z"/>
<path d="M1420 6013 c0 -16 10 -154 21 -308 15 -188 27 -294 38 -322 16 -41
243 -313 262 -313 12 0 11 36 -6 299 -16 240 -27 329 -44 373 -11 28 -249 298
-263 298 -4 0 -8 -12 -8 -27z"/>
<path d="M9933 5951 c-155 -43 -289 -84 -298 -91 -40 -33 -47 -71 -77 -403
l-30 -330 21 -20 20 -20 287 84 c158 46 298 92 311 102 44 35 51 66 85 399 35
349 34 359 -16 357 -11 0 -148 -35 -303 -78z"/>
<path d="M5825 5760 c-343 -87 -351 -90 -382 -124 l-33 -36 0 -389 0 -390 22
-15 c12 -9 31 -16 41 -16 33 0 720 190 744 205 53 35 56 53 64 439 9 416 9
417 -71 415 -19 0 -192 -41 -385 -89z"/>
<path d="M9186 5749 c-158 -44 -298 -87 -311 -95 -47 -30 -53 -65 -79 -405
-14 -188 -20 -333 -15 -346 4 -12 16 -24 27 -27 21 -7 591 157 626 180 47 30
55 66 81 362 31 352 31 388 6 402 -11 5 -26 10 -33 9 -7 -1 -143 -37 -302 -80z"/>
<path d="M3994 5805 c-4 -8 -2 -187 3 -397 9 -352 11 -387 30 -428 14 -32 76
-100 206 -229 177 -175 198 -192 278 -217 23 -8 759 193 789 215 59 41 60 52
60 454 l0 368 -25 24 c-13 14 -33 25 -45 25 -17 0 -626 -148 -742 -180 -20 -6
-51 -22 -68 -37 -35 -29 -34 -29 -69 30 -24 41 -385 387 -403 387 -5 0 -11 -7
-14 -15z"/>
<path d="M3133 5754 c-3 -9 1 -174 9 -368 13 -312 17 -356 35 -396 13 -29 77
-104 178 -210 87 -91 162 -167 168 -169 20 -8 26 28 21 129 -3 58 -9 218 -14
355 -5 151 -14 266 -21 290 -10 30 -52 80 -174 203 -173 177 -192 192 -202
166z"/>
<path d="M2390 5658 c0 -90 29 -577 36 -613 4 -16 13 -43 21 -58 16 -32 290
-337 303 -337 18 0 17 62 -9 522 -7 128 -14 177 -29 210 -19 42 -283 329 -309
336 -10 3 -13 -14 -13 -60z"/>
<path d="M1744 5676 c-4 -10 -1 -99 5 -199 7 -100 15 -222 18 -272 5 -99 25
-196 47 -226 8 -11 69 -84 137 -162 l124 -142 3 55 c5 91 -28 561 -43 616 -12
42 -36 74 -141 190 -69 76 -130 143 -135 148 -5 6 -11 2 -15 -8z"/>
<path d="M8402 5535 c-166 -45 -312 -89 -325 -98 -51 -33 -56 -60 -76 -412
-10 -182 -14 -340 -10 -352 5 -12 19 -25 31 -28 27 -6 615 164 653 189 48 31
54 60 75 348 11 150 22 301 25 335 6 54 4 64 -14 82 -12 12 -29 21 -38 20 -10
0 -154 -38 -321 -84z"/>
<path d="M10571 5339 c-260 -77 -296 -93 -322 -140 -11 -22 -71 -582 -67 -634
3 -33 7 -41 27 -43 13 -2 143 34 289 79 286 90 315 105 327 172 3 18 21 160
40 317 29 252 32 288 19 308 -8 12 -22 22 -32 21 -9 0 -136 -36 -281 -80z"/>
<path d="M7576 5310 c-306 -84 -321 -89 -352 -123 -39 -42 -39 -44 -54 -450
-11 -304 -9 -322 33 -332 26 -7 643 173 681 199 50 32 55 59 75 411 11 183 15
339 11 351 -9 22 -30 35 -58 33 -9 0 -161 -40 -336 -89z"/>
<path d="M3563 5323 c-3 -9 -1 -174 5 -367 9 -267 15 -362 27 -396 12 -36 53
-86 191 -230 97 -102 181 -185 187 -185 20 0 11 704 -9 775 -15 51 -29 68
-197 238 -100 100 -185 182 -189 182 -5 0 -11 -7 -15 -17z"/>
<path d="M2767 5311 c-2 -11 -1 -97 4 -193 25 -484 25 -481 46 -528 19 -43
305 -370 324 -370 4 0 11 4 14 10 8 13 -13 541 -25 643 -5 42 -16 90 -24 105
-15 28 -296 330 -321 344 -8 5 -15 1 -18 -11z"/>
<path d="M2080 5258 c0 -128 32 -558 46 -606 15 -54 22 -63 213 -282 79 -90
84 -94 92 -72 9 27 -28 610 -42 659 -10 36 -41 78 -151 199 -77 85 -144 154
-149 154 -5 0 -9 -24 -9 -52z"/>
<path d="M1477 5293 c-10 -17 42 -601 56 -634 14 -33 240 -311 258 -317 13 -5
11 72 -10 354 -14 192 -23 260 -37 293 -17 39 -240 309 -256 310 -4 1 -9 -2
-11 -6z"/>
<path d="M9862 5131 c-144 -43 -273 -84 -287 -91 -52 -28 -63 -73 -91 -397
-14 -166 -23 -311 -19 -322 3 -11 14 -23 24 -26 9 -3 144 35 300 84 301 95
323 106 341 170 6 20 24 168 40 329 32 317 31 333 -18 331 -15 0 -145 -35
-290 -78z"/>
<path d="M6722 5079 c-178 -49 -334 -97 -348 -106 -55 -36 -57 -50 -65 -421
-5 -202 -4 -354 1 -368 5 -13 20 -26 33 -29 24 -6 654 173 710 202 58 29 64
63 77 436 12 320 12 339 -5 357 -11 13 -30 20 -49 19 -17 -1 -176 -41 -354
-90z"/>
<path d="M9113 4911 c-160 -48 -299 -93 -308 -101 -39 -32 -45 -68 -69 -387
-21 -279 -22 -321 -10 -340 8 -13 22 -23 32 -23 29 0 581 177 608 195 14 9 32
31 39 48 11 27 65 557 65 639 0 30 -24 58 -48 57 -9 0 -148 -40 -309 -88z"/>
<path d="M1790 4898 c0 -18 9 -153 20 -301 15 -212 23 -277 39 -311 20 -46
255 -336 271 -336 14 0 12 65 -9 360 -15 208 -22 263 -38 300 -22 47 -246 313
-269 318 -10 2 -14 -7 -14 -30z"/>
<path d="M5830 4836 c-184 -51 -345 -98 -357 -104 -12 -7 -32 -27 -45 -44 -23
-33 -23 -36 -26 -378 -2 -224 0 -355 7 -373 23 -60 29 -60 418 54 322 94 360
107 389 136 42 41 42 43 49 438 6 364 6 366 -63 364 -20 0 -188 -42 -372 -93z"/>
<path d="M2436 4911 c-6 -9 18 -508 29 -606 3 -27 14 -67 23 -87 19 -42 288
-358 304 -358 8 0 9 58 4 193 -13 364 -22 469 -42 514 -16 35 -282 342 -305
351 -4 2 -10 -1 -13 -7z"/>
<path d="M3167 4887 c-3 -7 1 -161 9 -342 10 -238 18 -341 29 -375 12 -36 52
-87 181 -228 91 -100 169 -182 175 -182 12 0 11 156 -1 473 -8 207 -13 255
-28 290 -19 42 -321 369 -347 375 -7 2 -15 -3 -18 -11z"/>
<path d="M4015 4871 c-3 -10 -1 -184 5 -386 9 -321 13 -373 29 -409 26 -58
371 -418 410 -429 17 -4 33 -12 36 -17 3 -6 21 -10 38 -10 46 1 736 205 766
228 14 10 34 34 44 53 16 31 17 66 15 392 -3 342 -4 359 -22 373 -11 8 -33 14
-49 14 -16 0 -194 -45 -395 -100 -296 -81 -370 -104 -392 -125 -34 -32 -48
-32 -56 3 -4 17 -79 100 -207 230 -111 111 -205 202 -209 202 -3 0 -9 -8 -13
-19z"/>
<path d="M8630 4767 c-171 -44 -580 -171 -600 -186 -54 -40 -57 -53 -76 -403
-19 -353 -19 -358 33 -358 26 0 541 159 606 187 71 31 75 44 101 400 13 175
20 328 15 339 -9 27 -34 33 -79 21z"/>
<path d="M10640 4606 c-58 -19 -178 -58 -267 -86 -224 -70 -206 -42 -244 -397
-16 -153 -28 -296 -27 -318 3 -36 6 -40 31 -43 16 -2 139 34 287 83 219 73
263 91 284 116 14 16 27 37 30 46 11 38 67 555 64 590 -4 51 -25 52 -158 9z"/>
<path d="M2128 4538 c-6 -15 28 -564 37 -611 11 -51 36 -87 171 -248 74 -88
130 -147 135 -142 15 15 -25 621 -44 666 -14 32 -267 337 -287 345 -4 2 -10
-3 -12 -10z"/>
<path d="M7540 4449 c-168 -49 -316 -98 -330 -107 -53 -39 -57 -62 -70 -414
-14 -360 -14 -358 44 -358 38 0 616 181 651 204 55 36 56 45 76 379 10 172 18
322 19 334 0 29 -26 53 -58 52 -15 0 -164 -40 -332 -90z"/>
<path d="M2807 4495 c-6 -14 3 -211 22 -524 8 -120 13 -150 33 -187 35 -65
309 -377 321 -365 15 15 -10 623 -29 689 -12 43 -32 72 -106 155 -181 202
-223 247 -229 247 -4 0 -9 -7 -12 -15z"/>
<path d="M3590 4333 c0 -70 5 -232 10 -360 7 -195 12 -239 28 -276 20 -45 343
-409 368 -415 12 -3 14 33 13 200 0 112 -4 280 -8 373 -6 145 -10 176 -29 210
-23 44 -345 388 -368 393 -12 3 -14 -18 -14 -125z"/>
<path d="M9782 4335 c-144 -45 -274 -90 -288 -100 -14 -9 -32 -31 -39 -48 -7
-18 -25 -168 -40 -335 -28 -316 -28 -332 14 -332 9 0 140 41 291 92 296 98
323 113 335 181 19 108 62 594 54 610 -6 10 -21 17 -37 16 -15 0 -145 -38
-290 -84z"/>
<path d="M6705 4204 c-176 -52 -331 -102 -344 -112 -64 -47 -63 -40 -70 -398
-4 -181 -3 -341 2 -357 5 -16 18 -29 32 -33 24 -6 648 185 696 213 59 35 61
48 75 407 12 292 12 333 -1 353 -10 15 -25 23 -43 22 -15 0 -171 -43 -347 -95z"/>
<path d="M9066 4110 c-154 -49 -290 -94 -303 -101 -54 -29 -61 -55 -83 -351
-12 -152 -20 -298 -18 -324 3 -45 5 -49 31 -52 29 -3 564 170 603 195 45 29
53 67 79 361 14 156 25 294 25 307 0 25 -24 55 -43 54 -7 0 -138 -40 -291 -89z"/>
<path d="M2480 4063 c0 -43 7 -185 15 -315 11 -183 18 -247 32 -279 22 -49
282 -368 302 -368 11 -1 13 27 7 167 -15 356 -25 471 -45 515 -19 42 -286 357
-302 357 -5 0 -9 -35 -9 -77z"/>
<path d="M3201 3963 c1 -219 25 -576 41 -614 20 -47 337 -411 350 -403 7 4 8
86 3 243 -10 356 -19 460 -41 503 -24 44 -324 378 -341 378 -10 0 -13 -28 -12
-107z"/>
<path d="M5827 3946 c-378 -112 -396 -121 -417 -195 -6 -20 -10 -174 -10 -351
0 -350 2 -363 57 -368 21 -2 160 37 373 104 351 111 379 123 401 181 4 12 11
174 15 361 l7 339 -24 16 c-13 10 -30 17 -39 16 -8 0 -172 -46 -363 -103z"/>
<path d="M4035 3981 c-3 -5 -1 -170 5 -366 9 -339 11 -360 32 -406 28 -59 371
-439 397 -439 9 0 26 -7 37 -15 10 -8 29 -15 41 -15 38 0 742 226 764 246 46
41 49 63 49 416 0 373 -1 378 -64 378 -18 0 -195 -48 -392 -106 -308 -90 -363
-109 -389 -135 -17 -16 -34 -29 -38 -29 -3 0 -15 21 -27 47 -12 27 -55 83 -97
128 -175 183 -297 305 -304 305 -4 0 -10 -4 -14 -9z"/>
<path d="M8302 3870 c-155 -50 -296 -97 -312 -105 -57 -29 -62 -52 -81 -395
-19 -314 -19 -315 1 -335 20 -20 20 -20 329 83 332 111 353 121 370 191 5 20
16 144 25 276 9 132 19 263 22 291 7 57 -10 84 -49 84 -12 -1 -149 -41 -305
-90z"/>
<path d="M10402 3800 c-145 -49 -270 -95 -279 -101 -36 -30 -46 -77 -75 -353
-16 -154 -26 -291 -23 -303 4 -16 13 -23 28 -23 13 0 138 41 277 91 241 85
288 108 311 150 8 16 68 494 72 572 1 36 -13 58 -38 56 -5 0 -129 -40 -273
-89z"/>
<path d="M2846 3711 c-5 -7 2 -197 20 -511 4 -71 13 -133 23 -161 18 -47 303
-399 323 -399 7 0 8 75 4 238 -9 287 -19 416 -37 460 -14 33 -294 366 -316
376 -7 3 -15 1 -17 -3z"/>
<path d="M7508 3620 c-170 -54 -319 -105 -333 -114 -50 -33 -53 -52 -66 -394
-14 -346 -13 -352 36 -352 29 0 621 198 652 217 43 28 51 66 67 344 9 146 16
289 16 317 0 53 -17 83 -48 81 -9 -1 -155 -45 -324 -99z"/>
<path d="M9713 3570 c-144 -48 -271 -95 -283 -103 -50 -35 -53 -49 -81 -360
-15 -164 -25 -305 -22 -313 2 -7 13 -16 22 -19 19 -6 538 174 578 200 43 28
52 71 83 364 31 299 30 322 -13 320 -12 0 -140 -40 -284 -89z"/>
<path d="M3616 3602 c-5 -8 9 -503 18 -622 3 -36 10 -80 17 -99 13 -36 343
-424 365 -429 12 -3 14 32 13 205 -1 339 -12 501 -36 548 -24 46 -342 403
-360 404 -6 1 -14 -3 -17 -7z"/>
<path d="M6680 3359 c-173 -54 -326 -107 -340 -118 -57 -42 -58 -50 -66 -399
-7 -302 -6 -323 11 -342 10 -11 25 -20 34 -20 9 0 159 48 334 106 316 105 361
126 388 177 7 12 17 151 24 336 14 349 13 362 -43 360 -15 0 -169 -45 -342
-100z"/>
<path d="M8980 3324 c-151 -52 -283 -103 -293 -112 -39 -35 -45 -67 -67 -365
-23 -314 -22 -327 21 -327 10 0 146 45 301 100 304 107 318 115 337 188 14 57
54 557 47 586 -5 21 -12 26 -39 25 -17 0 -156 -43 -307 -95z"/>
<path d="M3235 3261 c-9 -16 14 -588 26 -641 15 -66 33 -91 200 -291 114 -136
154 -178 160 -167 5 8 4 152 -2 319 -11 329 -20 384 -67 441 -70 85 -296 343
-303 346 -4 2 -10 -2 -14 -7z"/>
<path d="M6143 3189 c-256 -74 -671 -213 -691 -231 -50 -46 -52 -65 -52 -400
0 -350 1 -358 63 -358 18 0 181 50 364 111 396 132 386 125 396 260 4 46 7
198 8 338 2 253 2 254 -21 273 -25 20 -22 20 -67 7z"/>
<path d="M8251 3080 c-161 -55 -304 -106 -317 -115 -46 -30 -51 -55 -69 -364
-9 -161 -14 -303 -11 -316 3 -13 14 -26 24 -29 25 -8 611 199 639 226 12 11
26 32 32 46 8 22 51 524 51 601 0 22 -25 51 -43 50 -7 0 -144 -45 -306 -99z"/>
<path d="M4057 3116 c-3 -8 -2 -169 4 -358 9 -337 10 -344 35 -393 36 -72 362
-439 394 -443 14 -2 29 -8 34 -13 22 -20 86 -4 417 106 313 105 349 119 380
151 l34 35 3 334 c2 224 -1 342 -8 355 -6 11 -21 22 -35 26 -15 4 -146 -33
-385 -108 -311 -97 -368 -118 -401 -147 -22 -18 -41 -32 -43 -30 -2 2 -12 25
-23 50 -13 29 -86 118 -203 247 -100 111 -186 202 -190 202 -4 0 -10 -6 -13
-14z"/>
<path d="M7461 2816 c-378 -127 -365 -118 -374 -282 -4 -60 -10 -202 -13 -316
-7 -221 -5 -238 39 -238 12 0 157 48 322 106 314 111 345 127 364 188 5 17 14
128 20 246 7 118 14 249 17 291 7 83 -5 110 -49 108 -12 0 -159 -47 -326 -103z"/>
<path d="M3644 2785 c-4 -8 -1 -156 5 -329 8 -227 16 -326 27 -358 16 -49 333
-440 361 -447 15 -3 16 27 10 321 -5 240 -11 337 -22 374 -12 40 -47 86 -190
252 -97 111 -178 202 -181 202 -2 0 -7 -7 -10 -15z"/>
<path d="M6642 2541 c-325 -112 -353 -126 -371 -185 -5 -17 -12 -165 -14 -329
-5 -285 -5 -299 14 -318 10 -10 24 -19 31 -19 20 0 641 222 666 238 50 32 54
57 67 377 13 337 12 346 -48 344 -17 0 -173 -49 -345 -108z"/>
<path d="M5819 2264 c-367 -122 -389 -132 -410 -204 -15 -52 -8 -635 8 -651 7
-7 25 -12 40 -12 41 0 662 222 700 249 17 13 36 38 41 56 15 48 26 622 13 646
-6 11 -19 22 -30 25 -12 3 -169 -44 -362 -109z"/>
<path d="M4076 2282 c-4 -10 -2 -164 3 -343 8 -278 12 -330 28 -366 10 -24 97
-137 193 -253 130 -157 180 -210 196 -210 12 0 36 -8 52 -17 29 -17 31 -16
378 106 192 68 359 130 372 138 13 8 32 28 42 46 19 30 20 52 20 344 0 171 -3
319 -6 328 -18 45 -42 40 -393 -76 -362 -120 -399 -135 -429 -174 -11 -14 -23
-25 -26 -25 -3 0 -17 24 -30 53 -15 35 -81 120 -196 252 -95 110 -179 203
-186 208 -8 4 -15 1 -18 -11z"/>
</g>
</svg>
